<?xml version="1.0" encoding="UTF-8" standalone="no"?>
<!DOCTYPE svg PUBLIC "-//W3C//DTD SVG 1.1//EN" "http://www.w3.org/Graphics/SVG/1.1/DTD/svg11.dtd">
<svg width="100%" height="100%" viewBox="0 0 120 120" version="1.1" xmlns="http://www.w3.org/2000/svg" xmlns:xlink="http://www.w3.org/1999/xlink" xml:space="preserve" xmlns:serif="http://www.serif.com/" style="fill-rule:evenodd;clip-rule:evenodd;stroke-linejoin:round;stroke-miterlimit:2;">
    <g transform="matrix(0.166711,0,0,0.166711,-39.0448,1.09426)">
        <g transform="matrix(381.456,0,0,381.456,234.206,448.895)">
            <path d="M0.568,-0.703C0.568,-0.67 0.535,-0.649 0.469,-0.641C0.426,-0.639 0.382,-0.637 0.339,-0.635C0.28,-0.63 0.19,-0.622 0.071,-0.613C0.053,-0.611 0.044,-0.621 0.044,-0.644L0.045,-0.655L0.06,-0.666C0.137,-0.684 0.214,-0.702 0.291,-0.72C0.4,-0.744 0.476,-0.756 0.52,-0.756C0.552,-0.756 0.568,-0.738 0.568,-0.703ZM0.484,-0.394C0.484,-0.361 0.466,-0.336 0.429,-0.319C0.402,-0.306 0.364,-0.298 0.316,-0.293C0.285,-0.291 0.254,-0.289 0.223,-0.288C0.215,-0.231 0.207,-0.175 0.199,-0.118C0.184,-0.027 0.167,0.044 0.146,0.095C0.119,0.165 0.085,0.2 0.046,0.2C0.015,0.2 0,0.185 0,0.156C0,0.147 0.025,0.088 0.074,-0.02C0.123,-0.128 0.148,-0.203 0.148,-0.245C0.148,-0.256 0.147,-0.266 0.145,-0.273C0.136,-0.271 0.12,-0.261 0.098,-0.242C0.083,-0.229 0.068,-0.216 0.053,-0.203C0.042,-0.202 0.036,-0.212 0.036,-0.231C0.036,-0.258 0.051,-0.28 0.081,-0.299C0.085,-0.301 0.111,-0.313 0.16,-0.334C0.16,-0.442 0.164,-0.521 0.173,-0.57C0.175,-0.584 0.182,-0.591 0.194,-0.591C0.214,-0.591 0.224,-0.563 0.224,-0.508C0.224,-0.503 0.222,-0.449 0.219,-0.346L0.226,-0.338C0.259,-0.338 0.29,-0.347 0.32,-0.365C0.332,-0.372 0.354,-0.389 0.386,-0.416C0.408,-0.435 0.425,-0.444 0.438,-0.444C0.469,-0.444 0.484,-0.427 0.484,-0.394Z" style="fill-rule:nonzero;"/>
        </g>
        <g transform="matrix(381.456,0,0,381.456,436.377,448.895)">
            <path d="M0.245,-0.175C0.245,-0.228 0.237,-0.275 0.22,-0.316C0.197,-0.372 0.163,-0.4 0.117,-0.4C0.096,-0.4 0.08,-0.389 0.069,-0.367C0.06,-0.349 0.055,-0.328 0.055,-0.306C0.055,-0.252 0.062,-0.202 0.076,-0.157C0.096,-0.092 0.127,-0.06 0.169,-0.06C0.194,-0.06 0.213,-0.074 0.227,-0.101C0.239,-0.123 0.245,-0.148 0.245,-0.175ZM0.292,-0.23C0.292,-0.177 0.281,-0.128 0.26,-0.083C0.233,-0.027 0.195,0.001 0.147,0.001C0.099,0.001 0.06,-0.024 0.031,-0.075C0.007,-0.118 -0.005,-0.166 -0.005,-0.218C-0.005,-0.278 0.005,-0.331 0.026,-0.378C0.053,-0.439 0.092,-0.47 0.144,-0.47C0.195,-0.47 0.235,-0.441 0.262,-0.384C0.282,-0.34 0.292,-0.289 0.292,-0.23Z" style="fill-rule:nonzero;"/>
        </g>
        <g transform="matrix(381.456,0,0,381.456,564.165,448.895)">
            <path d="M0.226,-0.084C0.226,-0.119 0.207,-0.151 0.168,-0.18C0.132,-0.203 0.095,-0.227 0.059,-0.25C0.02,-0.28 0.001,-0.315 0.001,-0.354C0.001,-0.392 0.017,-0.422 0.05,-0.444C0.078,-0.463 0.112,-0.473 0.152,-0.473C0.225,-0.473 0.261,-0.455 0.261,-0.418C0.261,-0.407 0.257,-0.398 0.249,-0.389C0.241,-0.38 0.232,-0.376 0.221,-0.376C0.208,-0.376 0.189,-0.38 0.164,-0.388C0.139,-0.396 0.121,-0.4 0.109,-0.4C0.07,-0.4 0.05,-0.383 0.05,-0.349C0.05,-0.327 0.07,-0.302 0.109,-0.275C0.173,-0.232 0.21,-0.205 0.219,-0.196C0.259,-0.159 0.279,-0.118 0.279,-0.071C0.279,-0.013 0.252,0.035 0.199,0.073C0.152,0.107 0.098,0.124 0.037,0.124C-0.021,0.124 -0.05,0.108 -0.05,0.075C-0.05,0.048 -0.041,0.034 -0.023,0.034C-0.01,0.034 0.009,0.035 0.034,0.036C0.059,0.038 0.077,0.039 0.09,0.039C0.126,0.039 0.157,0.027 0.185,0.004C0.212,-0.019 0.226,-0.049 0.226,-0.084Z" style="fill-rule:nonzero;"/>
        </g>
        <g transform="matrix(381.456,0,0,381.456,682.035,448.895)">
            <path d="M0.226,-0.084C0.226,-0.119 0.207,-0.151 0.168,-0.18C0.132,-0.203 0.095,-0.227 0.059,-0.25C0.02,-0.28 0.001,-0.315 0.001,-0.354C0.001,-0.392 0.017,-0.422 0.05,-0.444C0.078,-0.463 0.112,-0.473 0.152,-0.473C0.225,-0.473 0.261,-0.455 0.261,-0.418C0.261,-0.407 0.257,-0.398 0.249,-0.389C0.241,-0.38 0.232,-0.376 0.221,-0.376C0.208,-0.376 0.189,-0.38 0.164,-0.388C0.139,-0.396 0.121,-0.4 0.109,-0.4C0.07,-0.4 0.05,-0.383 0.05,-0.349C0.05,-0.327 0.07,-0.302 0.109,-0.275C0.173,-0.232 0.21,-0.205 0.219,-0.196C0.259,-0.159 0.279,-0.118 0.279,-0.071C0.279,-0.013 0.252,0.035 0.199,0.073C0.152,0.107 0.098,0.124 0.037,0.124C-0.021,0.124 -0.05,0.108 -0.05,0.075C-0.05,0.048 -0.041,0.034 -0.023,0.034C-0.01,0.034 0.009,0.035 0.034,0.036C0.059,0.038 0.077,0.039 0.09,0.039C0.126,0.039 0.157,0.027 0.185,0.004C0.212,-0.019 0.226,-0.049 0.226,-0.084Z" style="fill-rule:nonzero;"/>
        </g>
        <g transform="matrix(381.456,0,0,381.456,799.905,448.895)">
            <path d="M0.077,0.255C0.065,0.255 0.054,0.251 0.044,0.244C0.034,0.237 0.029,0.228 0.029,0.216C0.029,0.198 0.046,0.178 0.081,0.156C0.12,0.131 0.145,0.106 0.155,0.081C0.158,0.072 0.167,0.044 0.18,-0.005C0.181,-0.011 0.182,-0.016 0.182,-0.021C0.182,-0.048 0.157,-0.116 0.107,-0.225C0.074,-0.296 0.04,-0.367 0.006,-0.438C0.006,-0.456 0.017,-0.465 0.04,-0.465C0.068,-0.465 0.095,-0.44 0.12,-0.389C0.138,-0.352 0.155,-0.303 0.17,-0.242C0.177,-0.209 0.185,-0.177 0.192,-0.145C0.197,-0.142 0.201,-0.139 0.204,-0.136C0.211,-0.172 0.219,-0.209 0.227,-0.245C0.242,-0.307 0.26,-0.356 0.279,-0.392C0.306,-0.441 0.336,-0.465 0.371,-0.465C0.393,-0.465 0.404,-0.453 0.404,-0.429C0.404,-0.414 0.396,-0.396 0.379,-0.377C0.336,-0.327 0.309,-0.292 0.298,-0.274C0.29,-0.258 0.275,-0.216 0.254,-0.15C0.239,-0.071 0.224,0.008 0.209,0.086C0.181,0.199 0.137,0.255 0.077,0.255Z" style="fill-rule:nonzero;"/>
        </g>
    </g>
</svg>
